<svg width="50" height="50" viewBox="0 0 50 50" fill="none" xmlns="http://www.w3.org/2000/svg">
<path d="M8.08594 71.75L8.47656 71.7305C9.89583 71.4961 10.8919 70.7083 11.4648 69.3672C11.7513 68.6771 11.8945 67.9805 11.8945 67.2773C11.8945 66.4701 11.6992 65.6302 11.3086 64.7578C11.2305 64.5885 11.1523 64.5039 11.0742 64.5039C10.918 64.5039 10.6836 64.5951 10.3711 64.7773L9.74609 65.1094C8.74349 65.5781 7.84505 66.2357 7.05078 67.082C6.30859 67.8893 5.9375 68.8464 5.9375 69.9531C5.9375 70.6432 6.23698 71.1445 6.83594 71.457C7.22656 71.6523 7.64323 71.75 8.08594 71.75ZM8.32031 73.332C7.46094 73.332 6.64714 73.0781 5.87891 72.5703C5.11068 72.0625 4.67448 71.2682 4.57031 70.1875C4.57031 67.8828 5.76172 65.9688 8.14453 64.4453C8.88672 64.0156 9.58984 63.6641 10.2539 63.3906C10.2799 63.3646 10.3125 63.3451 10.3516 63.332C10.2865 63.2279 10.2214 63.1367 10.1562 63.0586C9.07552 61.8216 7.87109 60.8711 6.54297 60.207C6.50391 60.194 6.42578 60.1484 6.30859 60.0703C5.99609 59.9661 5.76172 59.8034 5.60547 59.582C5.34505 59.2305 5.21484 58.8984 5.21484 58.5859C5.21484 58.4818 5.23438 58.3516 5.27344 58.1953C5.32552 58.0391 5.42969 57.9023 5.58594 57.7852C5.75521 57.6549 5.92448 57.5508 6.09375 57.4727C7.51302 56.7956 8.96484 55.8646 10.4492 54.6797C11.9466 53.4818 13.1315 52.1536 14.0039 50.6953C14.5898 49.7057 14.8828 48.7096 14.8828 47.707C14.8828 47.2122 14.8177 46.724 14.6875 46.2422C14.388 45.2786 13.6328 44.7969 12.4219 44.7969C11.6927 44.7969 10.9896 44.9922 10.3125 45.3828C9.04948 46.099 7.96875 47.1732 7.07031 48.6055C6.0026 50.4284 5.20833 52.7656 4.6875 55.6172C4.14062 58.2604 3.78255 60.9492 3.61328 63.6836C3.52214 65.0898 3.45052 66.4831 3.39844 67.8633C3.39844 68.2148 3.30729 68.5599 3.125 68.8984C3.125 68.9115 3.10547 68.944 3.06641 68.9961C2.94922 69.1523 2.82552 69.2305 2.69531 69.2305L2.53906 69.2109C2.38281 69.0547 2.29818 68.944 2.28516 68.8789C1.03516 65.0768 0.410156 60.2135 0.410156 54.2891C0.410156 54.0938 0.416667 53.599 0.429688 52.8047C0.442708 52.0104 0.63151 50.9818 0.996094 49.7188C1.17839 49.0677 1.4974 48.7422 1.95312 48.7422C2.5651 48.7422 2.87109 49.1719 2.87109 50.0312L2.85156 50.3828C2.76042 53.1172 2.71484 54.6536 2.71484 54.9922L2.73438 59.0547C3.13802 56.125 3.61328 53.7161 4.16016 51.8281C5.14974 48.4167 6.78385 45.9362 9.0625 44.3867C9.85677 43.8529 10.7487 43.4753 11.7383 43.2539C12.168 43.1628 12.5911 43.1172 13.0078 43.1172C13.5417 43.1172 14.1536 43.2279 14.8438 43.4492C15.5339 43.6706 16.1068 44.2891 16.5625 45.3047C16.901 46.1641 17.0703 47.0104 17.0703 47.8438C17.0703 48.7682 16.7708 49.875 16.1719 51.1641C15.5859 52.4531 14.5573 53.7878 13.0859 55.168C11.6146 56.5482 10.0781 57.7396 8.47656 58.7422C9.96094 59.6276 11.276 60.819 12.4219 62.3164C12.5391 62.4987 12.6042 62.5964 12.6172 62.6094C12.6432 62.6094 12.6758 62.6224 12.7148 62.6484C12.9362 62.5703 14.1211 62.5117 16.2695 62.4727C17.4674 62.4987 18.0664 62.668 18.0664 62.9805C18.0664 63.0326 18.0469 63.0846 18.0078 63.1367C17.9818 63.1888 17.9492 63.2409 17.9102 63.293C17.8841 63.332 17.8385 63.3711 17.7734 63.4102C17.1094 63.6315 16.0482 63.7552 14.5898 63.7812C14.1602 63.8073 13.7565 63.8464 13.3789 63.8984L13.5547 64.3867C13.9583 65.2852 14.1602 66.2096 14.1602 67.1602C14.1602 68.293 13.8086 69.4518 13.1055 70.6367C12.4154 71.8216 11.25 72.6615 9.60938 73.1562C9.17969 73.2734 8.75 73.332 8.32031 73.332ZM20.2539 63.5859L20.5078 63.5664C21.7839 63.5013 22.7995 62.9414 23.5547 61.8867C23.8802 61.418 24.043 60.9362 24.043 60.4414C24.0039 59.6602 23.7044 59.2695 23.1445 59.2695C22.4805 59.2695 21.8685 59.5039 21.3086 59.9727C20.7487 60.4414 20.2539 60.9948 19.8242 61.6328C19.4076 62.2578 19.0755 62.8372 18.8281 63.3711L18.8086 63.3906C19.1992 63.5208 19.681 63.5859 20.2539 63.5859ZM19.1406 71.3398H18.9062C17.7865 71.3398 16.9727 70.9492 16.4648 70.168C15.944 69.3737 15.6836 68.3841 15.6836 67.1992C15.6836 66.1445 15.8008 65.1875 16.0352 64.3281C16.3086 63.3516 16.7643 62.3294 17.4023 61.2617C18.0404 60.194 18.8216 59.3021 19.7461 58.5859C20.6706 57.8568 21.6732 57.4922 22.7539 57.4922C23.431 57.4922 24.0169 57.6875 24.5117 58.0781C25.0456 58.5339 25.3125 59.1849 25.3125 60.0312C25.3125 60.9036 25.026 61.7305 24.4531 62.5117C23.3724 63.918 21.9141 64.6211 20.0781 64.6211C19.4531 64.6211 18.8932 64.5234 18.3984 64.3281C18.099 65.0182 17.8906 65.8451 17.7734 66.8086C17.7344 67.069 17.7148 67.3164 17.7148 67.5508C17.7148 69.1263 18.3073 69.9141 19.4922 69.9141C19.7526 69.9141 20.0521 69.875 20.3906 69.7969C21.7578 69.3802 22.9427 68.6445 23.9453 67.5898C24.8698 66.6133 25.931 65.2786 27.1289 63.5859C27.3893 63.2734 27.6172 62.9805 27.8125 62.707C27.8906 62.5768 28.0013 62.5117 28.1445 62.5117C28.4049 62.5117 28.5482 62.6484 28.5742 62.9219C28.5742 63.013 28.4766 63.2344 28.2812 63.5859C27.3958 65.0964 26.3411 66.4896 25.1172 67.7656C24.4141 68.5078 23.75 69.1198 23.125 69.6016C21.849 70.6432 20.5208 71.2227 19.1406 71.3398ZM30.1172 63.625C30.9115 63.2604 31.6536 62.7982 32.3438 62.2383C34.2057 60.7539 35.8398 58.8919 37.2461 56.6523C38.6654 54.3997 39.5247 52.082 39.8242 49.6992V49.4648C39.8242 48.4883 39.4076 48 38.5742 48C38.2227 48 37.832 48.1172 37.4023 48.3516C36.6732 48.7943 36.0352 49.3867 35.4883 50.1289C32.9622 53.5273 31.2044 57.7852 30.2148 62.9023C30.1758 63.1367 30.1432 63.3776 30.1172 63.625ZM32.3047 74.1523C31.7969 74.1523 31.2826 74.0221 30.7617 73.7617C29.9414 73.293 29.3099 72.6029 28.8672 71.6914C28.0469 70.0638 27.6367 67.9544 27.6367 65.3633C27.6367 63.5924 27.9297 61.5221 28.5156 59.1523C29.1146 56.7826 30.1432 54.3021 31.6016 51.7109C32.9688 49.1849 34.5247 47.4336 36.2695 46.457C36.7904 46.1706 37.3177 46.0273 37.8516 46.0273C38.3854 46.0273 38.9258 46.1641 39.4727 46.4375C39.8763 46.6589 40.1823 46.9518 40.3906 47.3164C40.7552 47.9284 40.9375 48.625 40.9375 49.4062C40.9375 49.4583 40.931 49.7057 40.918 50.1484C40.918 50.5911 40.8268 51.1576 40.6445 51.8477C40.0586 54.1133 39.0299 56.3008 37.5586 58.4102C36.1003 60.5195 34.3815 62.2904 32.4023 63.7227C31.7383 64.2435 30.9245 64.6602 29.9609 64.9727L29.9219 64.9922V65.1289C30 67.2643 30.2734 69.0286 30.7422 70.4219C31.224 71.8151 31.9141 72.5117 32.8125 72.5117C33.9844 72.5117 35.3125 71.1771 36.7969 68.5078C37.4349 67.362 37.9167 66.418 38.2422 65.6758L38.9844 64.2109C39.5573 63.0911 39.9349 62.5312 40.1172 62.5312L40.2148 62.5508C40.3971 62.5508 40.4883 62.6615 40.4883 62.8828C40.4883 63.4167 40.026 64.6536 39.1016 66.5938C37.4219 70.5391 35.5469 72.974 33.4766 73.8984C33.099 74.0677 32.7083 74.1523 32.3047 74.1523ZM42.1094 63.625C42.9036 63.2604 43.6458 62.7982 44.3359 62.2383C46.1979 60.7539 47.832 58.8919 49.2383 56.6523C50.6576 54.3997 51.5169 52.082 51.8164 49.6992V49.4648C51.8164 48.4883 51.3997 48 50.5664 48C50.2148 48 49.8242 48.1172 49.3945 48.3516C48.6654 48.7943 48.0273 49.3867 47.4805 50.1289C44.9544 53.5273 43.1966 57.7852 42.207 62.9023C42.168 63.1367 42.1354 63.3776 42.1094 63.625ZM44.2969 74.1523C43.7891 74.1523 43.2747 74.0221 42.7539 73.7617C41.9336 73.293 41.3021 72.6029 40.8594 71.6914C40.0391 70.0638 39.6289 67.9544 39.6289 65.3633C39.6289 63.5924 39.9219 61.5221 40.5078 59.1523C41.1068 56.7826 42.1354 54.3021 43.5938 51.7109C44.9609 49.1849 46.5169 47.4336 48.2617 46.457C48.7826 46.1706 49.3099 46.0273 49.8438 46.0273C50.3776 46.0273 50.918 46.1641 51.4648 46.4375C51.8685 46.6589 52.1745 46.9518 52.3828 47.3164C52.7474 47.9284 52.9297 48.625 52.9297 49.4062C52.9297 49.4583 52.9232 49.7057 52.9102 50.1484C52.9102 50.5911 52.819 51.1576 52.6367 51.8477C52.0508 54.1133 51.0221 56.3008 49.5508 58.4102C48.0924 60.5195 46.3737 62.2904 44.3945 63.7227C43.7305 64.2435 42.9167 64.6602 41.9531 64.9727L41.9141 64.9922V65.1289C41.9922 67.2643 42.2656 69.0286 42.7344 70.4219C43.2161 71.8151 43.9062 72.5117 44.8047 72.5117C45.9766 72.5117 47.3047 71.1771 48.7891 68.5078C49.4271 67.362 49.9089 66.418 50.2344 65.6758L50.9766 64.2109C51.5495 63.0911 51.9271 62.5312 52.1094 62.5312L52.207 62.5508C52.3893 62.5508 52.4805 62.6615 52.4805 62.8828C52.4805 63.4167 52.0182 64.6536 51.0938 66.5938C49.4141 70.5391 47.5391 72.974 45.4688 73.8984C45.0911 74.0677 44.7005 74.1523 44.2969 74.1523ZM55.293 63.5859L55.5469 63.5664C56.8229 63.5013 57.8385 62.9414 58.5938 61.8867C58.9193 61.418 59.082 60.9362 59.082 60.4414C59.043 59.6602 58.7435 59.2695 58.1836 59.2695C57.5195 59.2695 56.9076 59.5039 56.3477 59.9727C55.7878 60.4414 55.293 60.9948 54.8633 61.6328C54.4466 62.2578 54.1146 62.8372 53.8672 63.3711L53.8477 63.3906C54.2383 63.5208 54.7201 63.5859 55.293 63.5859ZM54.1797 71.3398H53.9453C52.8255 71.3398 52.0117 70.9492 51.5039 70.168C50.9831 69.3737 50.7227 68.3841 50.7227 67.1992C50.7227 66.1445 50.8398 65.1875 51.0742 64.3281C51.3477 63.3516 51.8034 62.3294 52.4414 61.2617C53.0794 60.194 53.8607 59.3021 54.7852 58.5859C55.7096 57.8568 56.7122 57.4922 57.793 57.4922C58.4701 57.4922 59.056 57.6875 59.5508 58.0781C60.0846 58.5339 60.3516 59.1849 60.3516 60.0312C60.3516 60.9036 60.0651 61.7305 59.4922 62.5117C58.4115 63.918 56.9531 64.6211 55.1172 64.6211C54.4922 64.6211 53.9323 64.5234 53.4375 64.3281C53.138 65.0182 52.9297 65.8451 52.8125 66.8086C52.7734 67.069 52.7539 67.3164 52.7539 67.5508C52.7539 69.1263 53.3464 69.9141 54.5312 69.9141C54.7917 69.9141 55.0911 69.875 55.4297 69.7969C56.7969 69.3802 57.9818 68.6445 58.9844 67.5898C59.9089 66.6133 60.9701 65.2786 62.168 63.5859C62.4284 63.2734 62.6562 62.9805 62.8516 62.707C62.9297 62.5768 63.0404 62.5117 63.1836 62.5117C63.444 62.5117 63.5872 62.6484 63.6133 62.9219C63.6133 63.013 63.5156 63.2344 63.3203 63.5859C62.4349 65.0964 61.3802 66.4896 60.1562 67.7656C59.4531 68.5078 58.7891 69.1198 58.1641 69.6016C56.888 70.6432 55.5599 71.2227 54.1797 71.3398ZM65.957 53.1758C65.8138 53.1758 65.6771 53.1432 65.5469 53.0781C65.2995 52.9479 65.1758 52.7721 65.1758 52.5508C65.2148 52.3034 65.3581 52.1471 65.6055 52.082C66.4909 51.9258 67.0443 51.2357 67.2656 50.0117L67.2852 49.8359C67.2852 49.6927 67.2461 49.5365 67.168 49.3672C66.9987 49.0156 66.9141 48.7292 66.9141 48.5078C66.9141 48.1302 67.1224 47.8698 67.5391 47.7266C67.6823 47.6875 67.819 47.668 67.9492 47.668C68.3789 47.668 68.7305 47.8568 69.0039 48.2344C69.2904 48.599 69.4336 49.0417 69.4336 49.5625C69.4076 50.1224 69.2578 50.6302 68.9844 51.0859C68.3984 52.0495 67.5195 52.7201 66.3477 53.0977C66.2174 53.1497 66.0872 53.1758 65.957 53.1758ZM69.9805 61.5156C70.6185 61.151 71.1068 60.7279 71.4453 60.2461C71.7969 59.7643 71.9727 59.3542 71.9727 59.0156C71.9727 58.4557 71.7318 58.1628 71.25 58.1367C70.638 58.1367 70.1953 58.4232 69.9219 58.9961C69.8177 59.2956 69.7591 59.6146 69.7461 59.9531C69.7591 60.4479 69.8372 60.9688 69.9805 61.5156ZM66.6992 83.2344C67.6237 83.2344 68.5156 82.8177 69.375 81.9844C69.8177 81.5807 70.1823 81.1445 70.4688 80.6758C71.6276 78.7878 72.207 76.8542 72.207 74.875C72.207 73.4557 71.9271 71.9909 71.3672 70.4805L70.0781 71.5547C67.6562 73.4818 65.9701 75.3763 65.0195 77.2383C64.4466 78.3451 64.1602 79.3932 64.1602 80.3828C64.1602 81.099 64.3685 81.75 64.7852 82.3359C65.2018 82.9349 65.8398 83.2344 66.6992 83.2344ZM67.2266 85.0117C65.5078 85.0117 64.2578 84.263 63.4766 82.7656C63.112 82.0625 62.9297 81.3008 62.9297 80.4805C62.9297 80.1029 62.9688 79.7188 63.0469 79.3281C63.5807 76.6589 65.2148 74.1458 67.9492 71.7891L70.5078 69.6016C70.6901 69.4453 70.8268 69.3346 70.918 69.2695L70.7031 68.7812C70.2604 67.7786 69.8112 66.7956 69.3555 65.832C68.8346 64.7773 68.3724 63.6706 67.9688 62.5117C67.7083 61.6393 67.5781 60.7995 67.5781 59.9922C67.5781 58.6641 68.0208 57.6159 68.9062 56.8477C69.5573 56.2747 70.306 55.9883 71.1523 55.9883C72.0508 55.9883 72.7669 56.3398 73.3008 57.043C73.6263 57.4857 73.7891 57.987 73.7891 58.5469C73.7891 59.25 73.5807 59.8945 73.1641 60.4805C72.5 61.3919 71.6341 62.082 70.5664 62.5508C70.4492 62.5898 70.3776 62.6224 70.3516 62.6484L71.2305 64.6211L72.6172 67.6484L72.6562 67.6094C72.6823 67.5703 72.7148 67.5378 72.7539 67.5117C74.1732 66.0273 75.3711 64.543 76.3477 63.0586C76.569 62.7982 76.7904 62.668 77.0117 62.668C77.2591 62.668 77.3828 62.7786 77.3828 63C77.3828 63.0911 77.3438 63.2669 77.2656 63.5273C77.1094 64.0091 76.5495 64.8815 75.5859 66.1445C74.9219 66.9909 74.1016 67.9023 73.125 68.8789C73.138 68.8919 73.1445 68.9049 73.1445 68.918C73.1445 68.931 73.151 68.9375 73.1641 68.9375C73.1771 68.9896 73.2031 69.0547 73.2422 69.1328C73.6849 70.3568 73.9909 71.431 74.1602 72.3555C74.2904 73.0716 74.3555 73.8398 74.3555 74.6602C74.3555 75.181 74.3034 75.9362 74.1992 76.9258C74.0951 77.9284 73.763 79.0938 73.2031 80.4219C72.6432 81.75 71.8685 82.8372 70.8789 83.6836C69.9023 84.543 68.6849 84.9857 67.2266 85.0117ZM93.3984 75.1875C93.8932 75.1875 94.3945 75.1354 94.9023 75.0312C96.4258 74.6667 97.806 74.0091 99.043 73.0586C100.189 72.1471 101.068 71.0599 101.68 69.7969C102.37 68.3776 102.715 66.8477 102.715 65.207C102.715 63.8919 102.474 62.6094 101.992 61.3594L101.953 61.3398C100.117 61.5221 98.1641 61.9648 96.0938 62.668C92.2526 63.9701 89.8047 66.2682 88.75 69.5625C88.5677 70.1224 88.4766 70.6693 88.4766 71.2031C88.4766 71.6849 88.5872 72.2773 88.8086 72.9805C89.043 73.6706 89.707 74.2435 90.8008 74.6992C91.6471 75.0247 92.513 75.1875 93.3984 75.1875ZM93.6328 77.1406C92.4479 77.1406 91.2565 76.8997 90.0586 76.418C87.9753 75.4284 86.9336 73.7943 86.9336 71.5156C86.9336 69.7578 87.4935 68.0456 88.6133 66.3789C89.8242 64.6862 91.4193 63.3646 93.3984 62.4141C96.0417 61.151 98.724 60.4219 101.445 60.2266H101.484C101.237 59.5625 100.423 58.3971 99.043 56.7305C98.0924 55.6497 97.1745 54.4518 96.2891 53.1367C95.4036 51.8086 94.8568 50.4674 94.6484 49.1133C94.6224 48.918 94.6094 48.7161 94.6094 48.5078C94.6094 47.375 95.0846 46.3008 96.0352 45.2852C97.1549 44.2174 98.5938 43.6836 100.352 43.6836C101.51 43.6836 102.663 43.9635 103.809 44.5234C104.967 45.0833 105.775 46.0143 106.23 47.3164C106.296 47.4987 106.328 47.681 106.328 47.8633C106.328 48.319 106.185 48.7161 105.898 49.0547C105.729 49.263 105.592 49.3672 105.488 49.3672C105.462 49.3672 105.41 49.3411 105.332 49.2891C105.267 49.237 105.234 48.918 105.234 48.332C105.234 48.1888 105.228 48.0911 105.215 48.0391C105.007 46.8932 104.16 46.112 102.676 45.6953C102.077 45.526 101.465 45.4414 100.84 45.4414C99.9935 45.4414 99.1602 45.6302 98.3398 46.0078C97.2852 46.4896 96.7578 47.3555 96.7578 48.6055C96.7578 50.168 97.6758 51.9779 99.5117 54.0352C101.022 55.9102 101.901 57.0104 102.148 57.3359C102.773 58.1823 103.301 59.0938 103.73 60.0703C103.757 60.1224 103.822 60.1484 103.926 60.1484C105.566 60.487 106.758 60.9297 107.5 61.4766C108.307 62.1016 108.711 62.5768 108.711 62.9023C108.711 63.2148 108.568 63.3711 108.281 63.3711L108.164 63.3516C107.617 62.6224 106.758 62.0299 105.586 61.5742C105.039 61.3268 104.57 61.2031 104.18 61.2031C104.18 61.2292 104.193 61.2617 104.219 61.3008C104.648 62.6159 104.863 64.0026 104.863 65.4609C104.863 68.3125 103.978 70.7865 102.207 72.8828C100.671 74.6146 98.8151 75.8581 96.6406 76.6133C95.638 76.9648 94.6354 77.1406 93.6328 77.1406ZM111.777 63.5859L112.031 63.5664C113.307 63.5013 114.323 62.9414 115.078 61.8867C115.404 61.418 115.566 60.9362 115.566 60.4414C115.527 59.6602 115.228 59.2695 114.668 59.2695C114.004 59.2695 113.392 59.5039 112.832 59.9727C112.272 60.4414 111.777 60.9948 111.348 61.6328C110.931 62.2578 110.599 62.8372 110.352 63.3711L110.332 63.3906C110.723 63.5208 111.204 63.5859 111.777 63.5859ZM110.664 71.3398H110.43C109.31 71.3398 108.496 70.9492 107.988 70.168C107.467 69.3737 107.207 68.3841 107.207 67.1992C107.207 66.1445 107.324 65.1875 107.559 64.3281C107.832 63.3516 108.288 62.3294 108.926 61.2617C109.564 60.194 110.345 59.3021 111.27 58.5859C112.194 57.8568 113.197 57.4922 114.277 57.4922C114.954 57.4922 115.54 57.6875 116.035 58.0781C116.569 58.5339 116.836 59.1849 116.836 60.0312C116.836 60.9036 116.549 61.7305 115.977 62.5117C114.896 63.918 113.438 64.6211 111.602 64.6211C110.977 64.6211 110.417 64.5234 109.922 64.3281C109.622 65.0182 109.414 65.8451 109.297 66.8086C109.258 67.069 109.238 67.3164 109.238 67.5508C109.238 69.1263 109.831 69.9141 111.016 69.9141C111.276 69.9141 111.576 69.875 111.914 69.7969C113.281 69.3802 114.466 68.6445 115.469 67.5898C116.393 66.6133 117.454 65.2786 118.652 63.5859C118.913 63.2734 119.141 62.9805 119.336 62.707C119.414 62.5768 119.525 62.5117 119.668 62.5117C119.928 62.5117 120.072 62.6484 120.098 62.9219C120.098 63.013 120 63.2344 119.805 63.5859C118.919 65.0964 117.865 66.4896 116.641 67.7656C115.938 68.5078 115.273 69.1198 114.648 69.6016C113.372 70.6432 112.044 71.2227 110.664 71.3398ZM122.246 71.6328C122.077 71.6328 121.706 71.5938 121.133 71.5156C120.56 71.4375 119.954 70.9232 119.316 69.9727C118.743 69.0352 118.457 67.9805 118.457 66.8086C118.457 65.7539 118.62 64.6927 118.945 63.625C119.271 62.5443 119.688 61.5742 120.195 60.7148C120.612 59.9596 121.159 59.2826 121.836 58.6836C122.526 58.0716 123.32 57.7526 124.219 57.7266C124.844 57.7266 125.358 57.9805 125.762 58.4883C126.178 58.9831 126.387 59.5365 126.387 60.1484C126.387 60.3568 126.361 60.5586 126.309 60.7539C126.178 61.2747 125.964 61.5352 125.664 61.5352C125.482 61.5221 125.339 61.4375 125.234 61.2812C125.143 61.112 125.059 60.9232 124.98 60.7148C124.837 60.1549 124.557 59.875 124.141 59.875C123.737 59.875 123.281 60.1875 122.773 60.8125C121.354 62.5443 120.645 64.6406 120.645 67.1016C120.645 68.7422 121.1 69.7773 122.012 70.207C122.246 70.2852 122.48 70.3242 122.715 70.3242C123.223 70.3242 123.783 70.0964 124.395 69.6406C125.02 69.1719 125.586 68.6445 126.094 68.0586C127.513 66.6393 128.783 64.9661 129.902 63.0391C130.072 62.7396 130.267 62.5638 130.488 62.5117C130.553 62.5117 130.618 62.5312 130.684 62.5703C130.762 62.6094 130.814 62.668 130.84 62.7461C130.879 62.8112 130.898 62.8763 130.898 62.9414C130.898 63.0977 130.827 63.2865 130.684 63.5078C129.902 64.9271 129.03 66.2812 128.066 67.5703C127.103 68.8464 125.944 69.9466 124.59 70.8711C123.822 71.3789 123.04 71.6328 122.246 71.6328ZM130.391 61.7891C130.417 61.7891 130.443 61.5807 130.469 61.1641C130.469 61.0208 130.488 60.6888 130.527 60.168C130.527 59.6602 130.404 59.1849 130.156 58.7422C129.792 59.2891 129.609 59.888 129.609 60.5391C129.609 61.1771 129.87 61.5938 130.391 61.7891ZM133.848 74.875C133.822 74.875 133.665 74.8685 133.379 74.8555C133.105 74.8424 132.832 74.5104 132.559 73.8594C132.389 73.3646 132.305 72.7396 132.305 71.9844C132.305 70.487 132.565 68.5599 133.086 66.2031L133.691 63.5469C133.639 63.5469 133.594 63.5534 133.555 63.5664C132.852 63.6836 132.135 63.7422 131.406 63.7422C131.341 63.7422 131.081 63.7422 130.625 63.7422C130.182 63.7292 129.642 63.5404 129.004 63.1758C128.366 62.8112 127.91 62.1797 127.637 61.2812C127.546 60.9036 127.5 60.5391 127.5 60.1875C127.5 59.263 127.812 58.4232 128.438 57.668C128.802 57.2253 129.245 56.9193 129.766 56.75C129.909 56.6979 130.046 56.6719 130.176 56.6719C130.54 56.6719 130.879 56.8607 131.191 57.2383C131.543 57.7721 131.738 58.4036 131.777 59.1328L131.797 60.0508C131.797 60.4414 131.784 60.806 131.758 61.1445C131.732 61.4831 131.712 61.7695 131.699 62.0039C131.829 62.056 131.986 62.082 132.168 62.082C132.454 62.082 132.839 62.0104 133.32 61.8672C134.049 61.6589 134.622 61.5547 135.039 61.5547C135.807 61.5547 136.191 61.9909 136.191 62.8633C136.191 63.6445 135.931 65.3372 135.41 67.9414C134.915 70.3242 134.668 71.9193 134.668 72.7266L134.746 72.7461C134.967 72.7461 135.286 72.2839 135.703 71.3594C136.12 70.4219 136.582 69.2435 137.09 67.8242C137.611 66.3919 138.066 65.0833 138.457 63.8984L138.75 63.0586C138.893 62.694 139.082 62.5117 139.316 62.5117L139.531 62.5703C139.635 62.7396 139.688 62.9219 139.688 63.1172C139.688 63.4167 139.564 63.8984 139.316 64.5625C139.251 64.7188 139.206 64.8555 139.18 64.9727C138.984 65.6367 138.665 66.6458 138.223 68C137.025 71.6198 136.061 73.7357 135.332 74.3477C134.85 74.6992 134.355 74.875 133.848 74.875ZM142.324 63.5859L142.578 63.5664C143.854 63.5013 144.87 62.9414 145.625 61.8867C145.951 61.418 146.113 60.9362 146.113 60.4414C146.074 59.6602 145.775 59.2695 145.215 59.2695C144.551 59.2695 143.939 59.5039 143.379 59.9727C142.819 60.4414 142.324 60.9948 141.895 61.6328C141.478 62.2578 141.146 62.8372 140.898 63.3711L140.879 63.3906C141.27 63.5208 141.751 63.5859 142.324 63.5859ZM141.211 71.3398H140.977C139.857 71.3398 139.043 70.9492 138.535 70.168C138.014 69.3737 137.754 68.3841 137.754 67.1992C137.754 66.1445 137.871 65.1875 138.105 64.3281C138.379 63.3516 138.835 62.3294 139.473 61.2617C140.111 60.194 140.892 59.3021 141.816 58.5859C142.741 57.8568 143.743 57.4922 144.824 57.4922C145.501 57.4922 146.087 57.6875 146.582 58.0781C147.116 58.5339 147.383 59.1849 147.383 60.0312C147.383 60.9036 147.096 61.7305 146.523 62.5117C145.443 63.918 143.984 64.6211 142.148 64.6211C141.523 64.6211 140.964 64.5234 140.469 64.3281C140.169 65.0182 139.961 65.8451 139.844 66.8086C139.805 67.069 139.785 67.3164 139.785 67.5508C139.785 69.1263 140.378 69.9141 141.562 69.9141C141.823 69.9141 142.122 69.875 142.461 69.7969C143.828 69.3802 145.013 68.6445 146.016 67.5898C146.94 66.6133 148.001 65.2786 149.199 63.5859C149.46 63.2734 149.688 62.9805 149.883 62.707C149.961 62.5768 150.072 62.5117 150.215 62.5117C150.475 62.5117 150.618 62.6484 150.645 62.9219C150.645 63.013 150.547 63.2344 150.352 63.5859C149.466 65.0964 148.411 66.4896 147.188 67.7656C146.484 68.5078 145.82 69.1198 145.195 69.6016C143.919 70.6432 142.591 71.2227 141.211 71.3398ZM153.145 71.8867C152.728 71.8867 152.292 71.75 151.836 71.4766C151.094 70.9427 150.579 70.181 150.293 69.1914C149.98 68.1497 149.824 66.8021 149.824 65.1484C149.824 64.0417 149.857 63.2474 149.922 62.7656C150.078 60.2526 150.592 57.1992 151.465 53.6055C151.53 53.2539 151.569 53.0716 151.582 53.0586C151.465 52.8763 151.094 52.7135 150.469 52.5703C150.065 52.4792 149.629 52.4336 149.16 52.4336C148.9 52.4336 148.509 52.4596 147.988 52.5117C147.454 52.5638 146.908 52.8307 146.348 53.3125C146.243 53.4167 146.133 53.4688 146.016 53.4688C145.859 53.4688 145.781 53.3516 145.781 53.1172C145.781 52.987 145.814 52.8503 145.879 52.707C146.27 52.043 146.875 51.6393 147.695 51.4961C148.177 51.418 148.652 51.3789 149.121 51.3789C149.46 51.3789 149.915 51.4115 150.488 51.4766C151.27 51.5677 151.738 51.6523 151.895 51.7305C151.921 51.7305 151.992 51.5417 152.109 51.1641C152.318 50.2135 152.546 49.3932 152.793 48.7031C153.236 47.401 153.841 46.75 154.609 46.75C154.688 46.75 154.85 46.776 155.098 46.8281C155.345 46.8672 155.495 47.1862 155.547 47.7852C155.547 48.4232 155.273 49.3411 154.727 50.5391C154.44 51.2292 154.251 51.7956 154.16 52.2383C154.694 52.4727 155.254 52.5898 155.84 52.5898C155.892 52.5898 156.094 52.5833 156.445 52.5703C156.81 52.5443 157.272 52.4531 157.832 52.2969C158.405 52.1276 158.874 51.9583 159.238 51.7891C159.603 51.6198 159.798 51.5352 159.824 51.5352C160.085 51.5352 160.221 51.6914 160.234 52.0039C160.234 52.082 160.202 52.1536 160.137 52.2188C159.355 53.1432 158.008 53.6055 156.094 53.6055C155.859 53.6055 155.488 53.5859 154.98 53.5469C154.473 53.5078 154.121 53.4622 153.926 53.4102H153.848C153.77 53.5013 153.646 53.9245 153.477 54.6797C152.539 58.5859 152.07 61.9453 152.07 64.7578C152.07 66.2682 152.201 67.5312 152.461 68.5469C152.734 69.5625 153.073 70.0703 153.477 70.0703C154.271 70.0703 155.046 69.4779 155.801 68.293C156.322 67.5378 157.311 65.6628 158.77 62.668C158.861 62.5768 158.958 62.5312 159.062 62.5312C159.219 62.5443 159.336 62.6289 159.414 62.7852C159.401 63.1237 159.251 63.6706 158.965 64.4258C157.363 68.5924 155.671 71.0339 153.887 71.75C153.639 71.8411 153.392 71.8867 153.145 71.8867ZM160.449 61.5156C161.087 61.151 161.576 60.7279 161.914 60.2461C162.266 59.7643 162.441 59.3542 162.441 59.0156C162.441 58.4557 162.201 58.1628 161.719 58.1367C161.107 58.1367 160.664 58.4232 160.391 58.9961C160.286 59.2956 160.228 59.6146 160.215 59.9531C160.228 60.4479 160.306 60.9688 160.449 61.5156ZM157.168 83.2344C158.092 83.2344 158.984 82.8177 159.844 81.9844C160.286 81.5807 160.651 81.1445 160.938 80.6758C162.096 78.7878 162.676 76.8542 162.676 74.875C162.676 73.4557 162.396 71.9909 161.836 70.4805L160.547 71.5547C158.125 73.4818 156.439 75.3763 155.488 77.2383C154.915 78.3451 154.629 79.3932 154.629 80.3828C154.629 81.099 154.837 81.75 155.254 82.3359C155.671 82.9349 156.309 83.2344 157.168 83.2344ZM157.695 85.0117C155.977 85.0117 154.727 84.263 153.945 82.7656C153.581 82.0625 153.398 81.3008 153.398 80.4805C153.398 80.1029 153.438 79.7188 153.516 79.3281C154.049 76.6589 155.684 74.1458 158.418 71.7891L160.977 69.6016C161.159 69.4453 161.296 69.3346 161.387 69.2695L161.172 68.7812C160.729 67.7786 160.28 66.7956 159.824 65.832C159.303 64.7773 158.841 63.6706 158.438 62.5117C158.177 61.6393 158.047 60.7995 158.047 59.9922C158.047 58.6641 158.49 57.6159 159.375 56.8477C160.026 56.2747 160.775 55.9883 161.621 55.9883C162.52 55.9883 163.236 56.3398 163.77 57.043C164.095 57.4857 164.258 57.987 164.258 58.5469C164.258 59.25 164.049 59.8945 163.633 60.4805C162.969 61.3919 162.103 62.082 161.035 62.5508C160.918 62.5898 160.846 62.6224 160.82 62.6484L161.699 64.6211L163.086 67.6484L163.125 67.6094C163.151 67.5703 163.184 67.5378 163.223 67.5117C164.642 66.0273 165.84 64.543 166.816 63.0586C167.038 62.7982 167.259 62.668 167.48 62.668C167.728 62.668 167.852 62.7786 167.852 63C167.852 63.0911 167.812 63.2669 167.734 63.5273C167.578 64.0091 167.018 64.8815 166.055 66.1445C165.391 66.9909 164.57 67.9023 163.594 68.8789C163.607 68.8919 163.613 68.9049 163.613 68.918C163.613 68.931 163.62 68.9375 163.633 68.9375C163.646 68.9896 163.672 69.0547 163.711 69.1328C164.154 70.3568 164.46 71.431 164.629 72.3555C164.759 73.0716 164.824 73.8398 164.824 74.6602C164.824 75.181 164.772 75.9362 164.668 76.9258C164.564 77.9284 164.232 79.0938 163.672 80.4219C163.112 81.75 162.337 82.8372 161.348 83.6836C160.371 84.543 159.154 84.9857 157.695 85.0117Z" fill="black"/>
<path d="M72.45 25.48C72.3844 25.4792 72.3194 25.4921 72.2591 25.518C72.1989 25.5438 72.1447 25.582 72.1 25.63C71.9 25.83 71.9 26.14 72.1 26.34C74.47 28.7 77.61 30 80.96 30C82.19 30 83.42 29.82 84.59 29.46C84.7155 29.4208 84.8204 29.3337 84.8822 29.2177C84.944 29.1017 84.9575 28.966 84.92 28.84C84.84 28.57 84.56 28.42 84.3 28.51C83.2159 28.8327 82.0911 28.9977 80.96 29C77.88 29 74.98 27.8 72.81 25.62C72.71 25.52 72.58 25.48 72.45 25.48V25.48Z" fill="#98FFCC"/>
<path d="M70.5 15.52C70.22 15.52 70 15.74 70 16.02C70 22.06 74.92 26.98 80.96 26.98C81.24 26.98 81.46 26.76 81.46 26.48C81.46 26.2 81.24 25.98 80.96 25.98C75.47 25.98 71 21.51 71 16.02C71 15.74 70.78 15.52 70.5 15.52ZM90.31 15.52C90.31 15.24 90.53 15.02 90.81 15.02C92.3 15.02 93.73 15.47 94.94 16.33C95.885 16.9944 96.6563 17.8764 97.1889 18.9015C97.7214 19.9266 97.9996 21.0648 98 22.22C98 22.49 97.78 22.72 97.5 22.72C97.22 22.72 97 22.5 97 22.22C97 20.2 96.01 18.31 94.37 17.14C93.3262 16.4105 92.0834 16.0195 90.81 16.02C90.53 16.02 90.31 15.8 90.31 15.52V15.52Z" fill="#98FFCC"/>
<path d="M96 25.57V27.52L95.31 27H89.96C85.79 27 82.41 23.47 82.41 19.3V18.87C82.41 18.4 82.79 18.02 83.26 18.02H88.45C90.4524 18.02 92.3728 18.8155 93.7887 20.2314C95.2046 21.6473 96 23.5676 96 25.57V25.57ZM73 13.12V15.99L74 15H81.89C88.04 15 93.03 10.01 93.03 3.86002V3.23002C93.03 2.54002 92.47 1.98002 91.78 1.98002H84.14C77.99 1.98002 73 6.97002 73 13.12Z" fill="#00D26A"/>
<path d="M86.67 20.65C86.5504 20.5874 86.4111 20.5744 86.282 20.6136C86.1529 20.6529 86.0444 20.7414 85.98 20.86C85.9465 20.9181 85.925 20.9824 85.9169 21.049C85.9088 21.1156 85.9143 21.1831 85.933 21.2476C85.9517 21.312 85.9832 21.372 86.0256 21.424C86.0681 21.476 86.1206 21.5188 86.18 21.55L94.26 25.96C94.7 26.21 94.98 26.67 94.98 27.18V29.47C94.98 29.75 95.21 29.98 95.49 29.98C95.77 29.98 96 29.75 96 29.47V27.17C96 26.29 95.52 25.49 94.75 25.06L86.67 20.65ZM86.75 5.87998C86.87 5.81998 86.99 5.78998 87.11 5.78998C87.37 5.78998 87.63 5.92998 87.76 6.17998C87.96 6.54998 87.82 6.99998 87.46 7.19998L75.56 13.7C75.2393 13.8762 74.9718 14.1353 74.7854 14.4501C74.5989 14.765 74.5004 15.1241 74.5 15.49V18.87C74.5 19.28 74.16 19.62 73.75 19.62C73.34 19.62 73 19.28 73 18.87V15.49C73 14.19 73.71 13 74.85 12.38L86.75 5.87998V5.87998Z" fill="#008463"/>
</svg>
